<?xml version="1.0" encoding="UTF-8"?>
<svg enable-background="new 0 0 2688.664 1559.805" version="1.1" viewBox="0 0 2688.664 1559.805" xml:space="preserve" xmlns="http://www.w3.org/2000/svg"><defs><filter id="d" x="-.0067354" y="-.021872" width="1.0135" height="1.0437" color-interpolation-filters="sRGB"><feGaussianBlur stdDeviation="3.9711145"/></filter><filter id="c" x="-.013116" y="-.024464" width="1.0262" height="1.0489" color-interpolation-filters="sRGB"><feGaussianBlur stdDeviation="3.9711145"/></filter><filter id="b" x="-.025953" y="-.067848" width="1.0519" height="1.1357" color-interpolation-filters="sRGB"><feGaussianBlur stdDeviation="3.9711145"/></filter><filter id="a" x="-.3024" y="-.3024" width="1.6048" height="1.6048" color-interpolation-filters="sRGB"><feGaussianBlur stdDeviation="81.751067"/></filter></defs><radialGradient id="i" cx="1636.9" cy="756.9" r="1602.3" gradientUnits="userSpaceOnUse"><stop stop-color="#fff" offset="0"/><stop stop-color="#fff" offset=".1063"/><stop stop-color="#FEF8C7" offset=".2249"/><stop stop-color="#EED9AC" offset=".272"/><stop stop-color="#ECD7AB" offset=".2772"/><stop stop-color="#C3B693" offset=".3806"/><stop stop-color="#A59F81" offset=".4746"/><stop stop-color="#939077" offset=".5554"/><stop stop-color="#8D8B73" offset=".6135"/><stop stop-color="#777A67" offset=".7428"/><stop stop-color="#41504B" offset="1"/></radialGradient><linearGradient id="h" x1="2700.8" x2="2016.7" y1="1452.8" y2="1020.7" gradientUnits="userSpaceOnUse"><stop stop-color="#595439" offset="0"/><stop stop-color="#A68857" offset=".6605"/><stop stop-color="#A8905F" offset="1"/></linearGradient><linearGradient id="g" x1="1771.9" x2="2380.9" y1="1112.3" y2="1112.3" gradientUnits="userSpaceOnUse"><stop stop-color="#A8905F" offset="0"/><stop stop-color="#BE9D64" offset="1"/></linearGradient><linearGradient id="f" x1="-642" x2="2667.8" y1="3805.1" y2="-139.38" gradientUnits="userSpaceOnUse"><stop stop-color="#595439" offset="0"/><stop stop-color="#BE9D64" offset=".6605"/><stop stop-color="#A8905F" offset="1"/></linearGradient><linearGradient id="e" x1="295.68" x2="1506.5" y1="1592.2" y2="149.24" gradientUnits="userSpaceOnUse"><stop stop-color="#595439" offset="0"/><stop stop-color="#BE9D64" offset=".6605"/><stop stop-color="#A8905F" offset="1"/></linearGradient><rect width="2691.7" height="1561.8" fill="url(#i)"/><circle cx="1634.1" cy="767.53" r="324.41" fill="#FFFCDF" filter="url(#a)"/><path d="m1732.6 492.99c-3.195 0.02375-6.3275 0.8218-9.3925 2.5918-4.49 2.58-8.5103 2.2706-13.32 0.89062-10.34-2.97-21.06-3.4911-31.69-1.8711-25.63 3.88-48.25 14.62-68.23 31.01-4.39 3.61-7.9607 7.9206-11.221 12.641-7.21 10.42-13.219 21.531-19.809 32.311-6.41 10.49-9.5112 21.779-11.531 33.619-1.9 11.12-3.2992 22.391-6.1192 33.281-4.82 18.67-6.9712 37.87-11.781 56.51-0.49 1.93-1.1594 3.8584-1.3594 5.8184-0.78 7.45-0.5298 14.761 5.1602 20.531 3.98 4.03 5.129 9.0798 6.289 14.34 2.39 10.81 2.5317 21.719 2.1817 32.689-0.15 4.87 1.01 10.18-4.5 13.33-0.69 0.39-1.2209 1.7904-1.1309 2.6504 0.62 5.78-2.7105 10.889-2.5605 16.609 0.13 4.97-0.45 9.621-3.25 14.291-2.03 3.39-2.0992 7.9786-5.8692 10.559-1.41 9.83-8.9894 13.661-16.939 16.391-10.73 3.69-20.982 8.3312-31.182 13.201-6.38 3.05-12.089 6.9194-17.369 11.609-10.89 9.67-18.83 21.49-25.5 34.27-6.93 13.26-13.791 26.541-20.721 39.801-0.95 1.82-1.4188 3.6788-1.4688 5.7188-0.61 21.49-6.99 41.86-12.33 62.41-0.61 2.38-1.361 4.7408-1.961 7.1308-0.63 2.46-1.119 4.9292-1.209 7.4492-0.32 9.43-3.37 18.28-5.58 27.26-3.57 14.51-8.0597 28.79-11.93 43.23-2.84 10.58-4.8712 21.391-9.4512 31.471-0.93 2.05-1.2905 4.509-1.3105 6.789-0.04 4.49-1.5095 8.4311-3.4395 12.371-1.6 3.27-3.1301 6.6888-3.9101 10.219-1.03 4.66-2.9386 8.7504-5.4786 12.73-3.97 6.23-6.7707 12.901-7.3007 20.461-0.2 2.93-1.2707 5.8401-2.2207 8.6601-1.69 5.05-3.3186 10.06-3.9786 15.43-0.72 5.91-1.6909 11.9-3.4609 17.57-3.35 10.77-7.5905 21.259-9.4805 32.469-0.57 3.34-1.4504 3.6205-4.9004 1.7305-8.47-4.62-16.888-9.32-25.228-14.17-22.54-13.1-46.461-22.94-71.551-29.92-21.29-5.92-41.6-3.6805-60.32 8.5195-14.98 9.76-25.619 23.25-31.939 39.9-4.06 10.7-6.0799 21.94-3.6699 33.35 3.61 17.05 9.0804 33.42 19.73 47.6 2.6 3.46 5.0995 7.0007 7.6895 10.471 5.57 7.48 11.201 14.91 16.721 22.43 1.89 2.58 1.0798 4.5894-1.9102 4.8594-2.98 0.26-5.9904 0.251-8.9804 0.291-27.33 0.37-54.601-1.2506-81.881-2.3906-29.94-1.25-59.868-2.7397-89.818-3.9297-12.31-0.48-24.731 0.3999-36.951-0.8301-18.92-1.9-37.92-1.1903-56.85-3.1503-16.51-1.71-33.21-0.3391-49.85-2.0391-14.19-1.45-28.551-0.6602-42.861-1.9902-15.86-1.48-31.88-0.5899-47.85-2.0899-14.86-1.39-29.86-0.781-44.83-2.041-17.55-1.47-35.259-1.3886-52.889-2.0586-29.93-1.13-59.84-2.3609-89.74-4.1309-19.25-1.14-38.571-1.7507-57.861-2.3007-25.3-0.74-50.549-3.1686-75.889-2.5586-1.66 0.04-3.3605 0.0087-4.9805-0.2813-15.47-2.77-31.211-2.129-46.791-3.039-21.91-1.28-43.89-1.9104-65.84-2.9004-6.65-0.29-13.379 0.261-19.979-0.459-22.88-2.5-45.92-0.9017-68.82-3.1817-10.25-1.02-20.681-0.2592-30.941-1.1992-14.91-1.38-29.879-1.3504-44.799-2.9004-16.51-1.71-33.241-0.2493-49.871-2.1093-11.86-1.32-23.95-1.6604-35.85-1.8204-25.65-0.34-51.2-2.9392-76.85-2.6992-3.31 0.03-6.6699 0.5695-9.9199-0.5605v225.97c3.65 0.17 7.2992 0.4687 10.949 0.4687 209.62 0 419.25 0.01 628.87 0 0.01 0.01 0.00977 0.01 0.00977 0 679.63 0.02 1359.3 0.02 2038.9 0 3.65 0 7.2993-0.2987 10.949-0.4687v-123.98c-7.98 0.07-15.971 0.2392-23.961 0.1992-8.97-0.06-17.9-0.1001-26.85-1.6601-9.14-1.6-18.419-3.3389-27.779-2.5489-18.37 1.56-36.54-1.8998-54.84-1.8398-0.99 0-1.9907-0.2004-2.9707-0.4004-10.89-2.31-22.13-2.2196-32.83-0.8496-14.16 1.81-28.789-0.4405-42.549 4.6895-1.2 0.45-2.6505 0.279-3.9805 0.289-20.98 0.17-41.96 0.361-62.94 0.461-10.32 0.05-20.631-0.0997-30.941-0.0997-6.63 0-13.33 0.8093-19.42-3.0507-1.29-0.82-3.1996-0.8197-4.8496-0.9297-10.27-0.66-20.55-1.3908-30.83-1.8008-9.32-0.37-18.65-0.3795-27.98-0.5195-2.66-0.04-5.2901 0.0504-7.8301-1.0996-5.01-2.26-10.31-2.5311-15.69-2.0411-4.69 0.42-9.3905 0.3202-13.81-1.3398-4.83-1.81-9.7893-1.8487-14.779-1.8887-14.99-0.11-29.99-0.1797-44.99-0.2597-6.33-0.04-12.63-0.7806-18.92-1.0606-19.28-0.83-38.601-1.7204-57.881 0.5996-10.89 1.31-21.81 2.5408-32.76 0.3008-1.24-0.26-2.6202 0.03-3.9102 0.25-5.25 0.85-10.458 2.0691-15.728 2.6191-11.27 1.16-22.54 1.9901-33.68-1.4199-3.75-1.15-7.53-2.1798-11.75-1.5898-4.41 0.61-8.4914-1.671-11.521-4.711-2.43-2.44-0.199-5.7391 0.121-8.6191 0.36-3.29 1.1097-6.5491 1.8497-9.7891 4.81-21.16 8.0102-42.501 8.2402-64.281 0.13-12.25-1.9297-23.911-7.1797-34.891-8.62-18.05-20.7-33.378-37.26-44.818-4.52-3.11-8.2714-6.5005-10.521-11.56-0.94-2.1-2.3901-4.0199-3.8301-5.8399-2.92-3.68-2.5689-7.3994-0.2989-11.109 1.55-2.55 3.3486-4.8617 3.8086-8.0117 1.07-7.24 2.6511-14.41 3.6211-21.66 0.69-5.26 0.2205-10.41-2.2695-15-0.55-1.03-1.2007-2.03-1.9707-3-8.88-11.22-12.42-24.92-17.58-37.84-1.2-3-2.0001-6.709-1.4101-9.789 2.9-15.16-2.8795-30.31 0.3105-45.43 0.26-1.19-0.4405-2.5907-0.7305-3.8907-0.63-2.93-1.1789-5.8795-1.9589-8.7695-1.41-5.26-1.65-10.4 0-15.73 1.62-5.22 2.5095-10.57 2.7695-16.02 0.07-1.53 0.1003-3.0711 0.0703-4.6211-0.06-3.28 0.4093-6.6796 1.2793-9.8496 2.93-10.65 3.7706-21.64 4.6406-32.5 1.71-21.59 1.0696-43.26 0.3496-64.92-0.5-15.11-3.1405-29.68-8.3105-43.9-4.61-12.71-12.53-22.549-23.6-30.129-10.45-7.15-21.269-13.68-32.369-19.73-4.07-2.22-7.5303-5.3499-12.07-6.9199-10.21-3.52-16.67-10.521-18.15-21.551-0.26-1.93 0.2898-4.2697-1.7402-5.4297-3.62-2.07-4.9298-7.1794-10.26-7.1894-2.18-0.01-4.2211-2.1096-5.4511-4.0996-3.21-5.18-1.8288-10.921-1.7188-16.531 0.07-3.54 1.4106-4.8596 4.8906-4.0996 0.13 0.02 0.9689-1.6798 0.8789-2.5098-0.21-1.97-0.7107-3.9101-1.2207-5.8301-1.1-4.14-3.1893-8.2406-3.2793-12.391-0.33-15.28-1.6006-30.43-3.6406-45.59-1.59-11.87-3.2497-23.729-6.4297-35.219-4.73-17.11-7.1389-34.501-8.3789-52.121-0.21-2.97-0.5602-6.0301-1.4902-8.8301-3.79-11.35-7.5899-22.699-11.84-33.889-4.5-11.81-9.5409-23.421-17.211-33.641-6.01-7.99-13.05-15.119-19.43-22.779-9.31-11.19-21.409-17.542-34.529-22.762-3.315-1.325-6.5726-2.0745-9.7676-2.0508zm-223.55 641.82c0.75 0.1 1.779 1.1993 1.959 2.0293 0.95 4.21 1.7112 8.4493 2.4512 12.699 0.28 1.63-0.0012 3.4314 0.5488 4.9414 4.41 12.24 5.5099 25.259 8.9199 37.719 2.21 8.09 3.1306 16.311 3.1406 24.631 0.01 7.33 0.5694 14.61 1.3594 20.68-0.75 8.75-1.1887 16.32-2.1387 23.83-0.55 4.45-0.4111 8.58 2.0489 12.42 1.9 2.97 2.0204 5.9504 1.4004 9.4804-1.47 8.46-1.7204 17.04-1.1504 25.65 0.37 5.62 0.1211 11.29 0.1211 16.93 0 2.95-1.751 4.0703-4.461 4.0703-1.33 0-2.7787 0.3087-3.9687-0.1113-6.14-2.15-12.502-1.4896-18.772-1.5996-13.09-0.22-25.71-2.27-37.42-8.5-1.17-0.63-2.4702-0.9901-3.6602-1.5801-2.91-1.46-7.3201-1.2103-8.5801-4.3203-1.33-3.29 2.4611-5.7188 4.0411-8.4688 2.02-3.5 3.7401-7.0596 4.1601-11.1 0.59-5.75 2.9302-10.942 5.4902-15.932 2.28-4.44 5.1797-8.4987 5.8497-13.639 0.17-1.23 0.839-2.7704 1.789-3.4804 5.43-4.04 5.9217-9.9593 6.6817-15.949 0.99-7.92 3.0094-15.511 6.4394-22.871 2.76-5.93 4.7306-12.29 4.0606-19.27-0.51-5.37 1.9096-10.42 4.0996-15.27 2.91-6.44 4.6295-13.002 4.5195-20.182-0.16-10.15 4.21-19.349 7-28.859 0.27-0.92 0.9409-1.8003 1.6309-2.4903 0.68-0.67 1.6894-1.559 2.4394-1.459z"/><path d="m1525.3 1261.3c0.95-7.51 1.39-15.08 2.14-23.83-0.79-6.07-1.35-13.35-1.36-20.68-0.01-8.32-0.93-16.54-3.14-24.63-3.41-12.46-4.51-25.48-8.92-37.72-0.55-1.51-0.27-3.31-0.55-4.94-0.74-4.25-1.5-8.49-2.45-12.7-0.18-0.83-1.21-1.93-1.96-2.03s-1.76 0.79-2.44 1.46c-0.69 0.69-1.36 1.57-1.63 2.49-2.79 9.51-7.16 18.71-7 28.86 0.11 7.18-1.61 13.74-4.52 20.18-2.19 4.85-4.61 9.9-4.1 15.27 0.67 6.98-1.3 13.34-4.06 19.27-3.43 7.36-5.45 14.95-6.44 22.87-0.76 5.99-1.25 11.91-6.68 15.95-0.95 0.71-1.62 2.25-1.79 3.48-0.67 5.14-3.57 9.2-5.85 13.64-2.56 4.99-4.9 10.18-5.49 15.93-0.42 4.04-2.14 7.6-4.16 11.1-1.58 2.75-5.37 5.18-4.04 8.47 1.26 3.11 5.67 2.86 8.58 4.32 1.19 0.59 2.49 0.95 3.66 1.58 11.71 6.23 24.33 8.28 37.42 8.5 6.27 0.11 12.63-0.55 18.77 1.6 1.19 0.42 2.64 0.11 3.97 0.11 2.71 0 4.46-1.12 4.46-4.07 0-5.64 0.25-11.31-0.12-16.93-0.57-8.61-0.32-17.19 1.15-25.65 0.62-3.53 0.5-6.51-1.4-9.48-2.46-3.84-2.6-7.97-2.05-12.42z" fill="url(#f)"/><path d="m2688.7 1048.4c-124.65 28.12-249.3 56.23-373.95 84.34-24.53 5.53-49.07 11.07-73.6 16.6-42.16 9.51-84.44 19.04-127.45 23.23-44.26 4.31-88.99 2.93-133.08 8.7-2.88 0.38-5.75 0.78-8.61 1.22 2.49 4.59 2.96 9.74 2.27 15-0.97 7.25-2.55 14.42-3.62 21.66-0.46 3.15-2.26 5.46-3.81 8.01-2.27 3.71-2.62 7.43 0.3 11.11 1.44 1.82 2.89 3.74 3.83 5.84 2.25 5.06 6 8.45 10.52 11.56 16.56 11.44 28.64 26.77 37.26 44.82 5.25 10.98 7.31 22.64 7.18 34.89-0.23 21.78-3.43 43.12-8.24 64.28-0.74 3.24-1.49 6.5-1.85 9.79-0.32 2.88-2.55 6.18-0.12 8.62 3.03 3.04 7.11 5.32 11.52 4.71 4.22-0.59 8 0.44 11.75 1.59 11.14 3.41 22.41 2.58 33.68 1.42 5.27-0.55 10.48-1.77 15.73-2.62 1.29-0.22 2.67-0.51 3.91-0.25 10.95 2.24 21.87 1.01 32.76-0.3 19.28-2.32 38.6-1.43 57.88-0.6 6.29 0.28 12.59 1.02 18.92 1.06 15 0.08 30 0.15 44.99 0.26 4.99 0.04 9.95 0.08 14.78 1.89 4.42 1.66 9.12 1.76 13.81 1.34 5.38-0.49 10.68-0.22 15.69 2.04 2.54 1.15 5.17 1.06 7.83 1.1 9.33 0.14 18.66 0.15 27.98 0.52 10.28 0.41 20.56 1.14 30.83 1.8 1.65 0.11 3.56 0.11 4.85 0.93 6.09 3.86 12.79 3.05 19.42 3.05 10.31 0 20.62 0.15 30.94 0.1 20.98-0.1 41.96-0.29 62.94-0.46 1.33-0.01 2.78 0.16 3.98-0.29 13.76-5.13 28.39-2.88 42.55-4.69 10.7-1.37 21.94-1.46 32.83 0.85 0.98 0.2 1.98 0.4 2.97 0.4 18.3-0.06 36.47 3.4 54.84 1.84 9.36-0.79 18.64 0.95 27.78 2.55 8.95 1.56 17.88 1.6 26.85 1.66 7.99 0.04 15.98-0.13 23.96-0.2v-389.37h-3z" fill="url(#h)" filter="url(#c)"/><path d="m2269.6 1112.4c-37.85-14.21-79.64-19.58-113.48-41.71l-0.81 0.67c-12.78-1-25.64-0.66-38.62 1.5-17.27 2.87-34.32 8.98-51.78 7.74-17.47-1.25-36.12-13.15-36.93-30.64-25.5-2.89-51.02-5.53-76.57-7.93-0.26 5.45-1.15 10.8-2.77 16.02-1.65 5.33-1.41 10.47 0 15.73 0.78 2.89 1.33 5.84 1.96 8.77 0.29 1.3 0.99 2.7 0.73 3.89-3.19 15.12 2.59 30.27-0.31 45.43-0.59 3.08 0.21 6.79 1.41 9.79 5.16 12.92 8.7 26.62 17.58 37.84 0.77 0.97 1.42 1.97 1.97 3 2.86-0.44 5.73-0.84 8.61-1.22 44.09-5.77 88.82-4.39 133.08-8.7 43.01-4.19 85.29-13.72 127.45-23.23 24.53-5.53 49.07-11.07 73.6-16.6-14.85-7.25-29.67-14.55-45.12-20.35z" fill="url(#g)" filter="url(#b)"/><path d="m1026.1 1005.5c-77.02-2.02-154.04-4.12-231.06-6.3-42.58-1.21-85.44-2.47-127.09-11.4-41.01-8.8-80.78-25.02-122.68-26.99-22.85-1.07-45.66 2.14-68.52 2.89-46.71 1.52-93.08-7.25-139.67-10.93-114.75-9.07-231.84 13.4-335.09 64.29v318.78c3.25 1.13 6.61 0.59 9.92 0.56 25.65-0.24 51.2 2.36 76.85 2.7 11.9 0.16 23.99 0.5 35.85 1.82 16.63 1.86 33.36 0.4 49.87 2.11 14.92 1.55 29.89 1.52 44.8 2.9 10.26 0.94 20.69 0.18 30.94 1.2 22.9 2.28 45.94 0.68 68.82 3.18 6.6 0.72 13.33 0.17 19.98 0.46 21.95 0.99 43.93 1.62 65.84 2.9 15.58 0.91 31.32 0.27 46.79 3.04 1.62 0.29 3.32 0.32 4.98 0.28 25.34-0.61 50.59 1.82 75.89 2.56 19.29 0.55 38.61 1.16 57.86 2.3 29.9 1.77 59.81 3 89.74 4.13 17.63 0.67 35.34 0.59 52.89 2.06 14.97 1.26 29.97 0.65 44.83 2.04 15.97 1.5 31.99 0.61 47.85 2.09 14.31 1.33 28.67 0.54 42.86 1.99 16.64 1.7 33.34 0.33 49.85 2.04 18.93 1.96 37.93 1.25 56.85 3.15 12.22 1.23 24.64 0.35 36.95 0.83 29.95 1.19 59.88 2.68 89.82 3.93 27.28 1.14 54.55 2.76 81.88 2.39 2.99-0.04 6-0.03 8.98-0.29 2.99-0.27 3.8-2.28 1.91-4.86-5.52-7.52-11.15-14.95-16.72-22.43-2.59-3.47-5.09-7.01-7.69-10.47-10.65-14.18-16.12-30.55-19.73-47.6-2.41-11.41-0.39-22.65 3.67-33.35 6.32-16.65 16.96-30.14 31.94-39.9 18.72-12.2 39.03-14.44 60.32-8.52 25.09 6.98 49.01 16.82 71.55 29.92 8.34 4.85 16.76 9.55 25.23 14.17 3.45 1.89 4.33 1.61 4.9-1.73 1.89-11.21 6.13-21.7 9.48-32.47 1.77-5.67 2.74-11.66 3.46-17.57 0.66-5.37 2.29-10.38 3.98-15.43 0.95-2.82 2.02-5.73 2.22-8.66 0.53-7.56 3.33-14.23 7.3-20.46 2.54-3.98 4.45-8.07 5.48-12.73 0.78-3.53 2.31-6.95 3.91-10.22 1.93-3.94 3.4-7.88 3.44-12.37 0.02-2.28 0.38-4.74 1.31-6.79 4.58-10.08 6.61-20.89 9.45-31.47 3.87-14.44 8.36-28.72 11.93-43.23 2.21-8.98 5.26-17.83 5.58-27.26 0.09-2.52 0.58-4.99 1.21-7.45-18.19-0.46-36.39-0.91-54.58-1.36-112.11-2.77-224.22-5.53-336.33-8.47z" fill="url(#e)" filter="url(#d)"/></svg>
